G04 Layer_Color=65535*
%FSLAX44Y44*%
%MOMM*%
G71*
G01*
G75*
%ADD28C,0.2000*%
%ADD29C,0.2500*%
%ADD30C,0.2540*%
%ADD31C,0.1540*%
%ADD32R,1.9000X0.8000*%
D28*
X566528Y797828D02*
G03*
X566528Y797828I-25000J0D01*
G01*
X293181Y718213D02*
G03*
X290748Y683159I8317J-18189D01*
G01*
X312248D02*
G03*
X309815Y718213I-10750J16865D01*
G01*
X423009Y770193D02*
G03*
X458063Y767760I18189J8317D01*
G01*
Y789260D02*
G03*
X423009Y786827I-16865J-10750D01*
G01*
X863381Y1053702D02*
G03*
X824705Y1053699I-19339J13352D01*
G01*
X765880Y1005840D02*
G03*
X778580Y1005840I6350J0D01*
G01*
X881380Y954024D02*
X889000D01*
X881380Y903224D02*
Y954024D01*
Y903224D02*
X896620D01*
Y954024D01*
X889000D02*
X896620D01*
X889000Y900938D02*
Y903224D01*
Y954024D02*
Y956310D01*
X509270Y684530D02*
Y692150D01*
Y684530D02*
X560070D01*
Y699770D01*
X509270D02*
X560070D01*
X509270Y692150D02*
Y699770D01*
X560070Y692150D02*
X562356D01*
X506984D02*
X509270D01*
X329000Y603880D02*
X433000D01*
X433000Y598880D02*
Y644880D01*
X329000D02*
X433000D01*
X329000Y598880D02*
Y644880D01*
Y598880D02*
X433000D01*
X626902Y954194D02*
Y1007194D01*
X598902Y954194D02*
Y1007194D01*
Y954194D02*
X626902D01*
X598902Y1007194D02*
X626902D01*
X636270Y676910D02*
X643890D01*
Y727710D01*
X628650D02*
X643890D01*
X628650Y676910D02*
Y727710D01*
Y676910D02*
X636270D01*
Y727710D02*
Y729996D01*
Y674624D02*
Y676910D01*
X725678Y1028954D02*
Y1036574D01*
Y1028954D02*
X776478D01*
Y1044194D01*
X725678D02*
X776478D01*
X725678Y1036574D02*
Y1044194D01*
X776478Y1036574D02*
X778764D01*
X723392D02*
X725678D01*
X824705Y1053704D02*
X863379D01*
X812570Y1229982D02*
X831570D01*
Y1190982D02*
Y1229982D01*
X812570Y1190982D02*
Y1229982D01*
X718080Y1005840D02*
X765880D01*
X778580D02*
X826380D01*
Y624840D02*
Y1005840D01*
X718080Y624840D02*
X826380D01*
X718080D02*
Y1005840D01*
D29*
X427750Y638380D02*
G03*
X427750Y638380I-1250J0D01*
G01*
X815792Y1067054D02*
G03*
X815792Y1067054I-1250J0D01*
G01*
D30*
X393446Y801878D02*
G03*
X393446Y801878I-45466J0D01*
G01*
X297110Y1194280D02*
X397110D01*
X297110Y1264280D02*
X397110D01*
X297110Y1194280D02*
Y1264280D01*
X397110Y1194280D02*
Y1264280D01*
X950322Y1190982D02*
Y1260982D01*
X850322Y1190982D02*
Y1260982D01*
X950322D01*
X850322Y1190982D02*
X950322D01*
X403752Y1194280D02*
X503752D01*
X403752Y1264280D02*
X503752D01*
X403752Y1194280D02*
Y1264280D01*
X503752Y1194280D02*
Y1264280D01*
X267910Y1147190D02*
X582910D01*
X267910Y872190D02*
X582910D01*
Y1147190D01*
X267910Y872190D02*
Y1147190D01*
X607380Y793750D02*
Y843750D01*
X647380Y793750D02*
Y843750D01*
X607380Y793750D02*
X647380D01*
X607380Y843750D02*
X647380D01*
X594666Y1110982D02*
Y1260982D01*
X804666Y1110982D02*
Y1260982D01*
X594666D02*
X804666D01*
X594666Y1110982D02*
X804666D01*
X883031Y982345D02*
Y997580D01*
X890648D01*
X893188Y995041D01*
Y989962D01*
X890648Y987423D01*
X883031D01*
X888109D02*
X893188Y982345D01*
X908423D02*
X898266D01*
X908423Y992502D01*
Y995041D01*
X905884Y997580D01*
X900805D01*
X898266Y995041D01*
X480949Y686181D02*
X465714D01*
Y693799D01*
X468253Y696338D01*
X473331D01*
X475871Y693799D01*
Y686181D01*
Y691259D02*
X480949Y696338D01*
Y709034D02*
X465714D01*
X473331Y701416D01*
Y711573D01*
X495177Y784476D02*
X492638Y781936D01*
Y776858D01*
X495177Y774319D01*
X505334D01*
X507873Y776858D01*
Y781936D01*
X505334Y784476D01*
X495177Y789554D02*
X492638Y792093D01*
Y797172D01*
X495177Y799711D01*
X497716D01*
X500256Y797172D01*
Y794632D01*
Y797172D01*
X502795Y799711D01*
X505334D01*
X507873Y797172D01*
Y792093D01*
X505334Y789554D01*
X305186Y600329D02*
X317882D01*
X320421Y602868D01*
Y607947D01*
X317882Y610486D01*
X305186D01*
X320421Y615564D02*
Y620642D01*
Y618103D01*
X305186D01*
X307725Y615564D01*
X243718Y873379D02*
Y883536D01*
Y878457D01*
X258953D01*
Y888614D02*
Y893692D01*
Y891153D01*
X243718D01*
X246257Y888614D01*
X278262Y757809D02*
X293497D01*
Y765426D01*
X290958Y767966D01*
X288419D01*
X285879Y765426D01*
Y757809D01*
Y765426D01*
X283340Y767966D01*
X280801D01*
X278262Y765426D01*
Y757809D01*
X293497Y773044D02*
Y778122D01*
Y775583D01*
X278262D01*
X280801Y773044D01*
X323253Y1233043D02*
Y1248278D01*
X330871D01*
X333410Y1245739D01*
Y1240660D01*
X330871Y1238121D01*
X323253D01*
X338488Y1233043D02*
X343566D01*
X341027D01*
Y1248278D01*
X338488Y1245739D01*
X610486Y1070224D02*
X600329D01*
Y1062607D01*
X605407D01*
X600329D01*
Y1054989D01*
X615564D02*
X620642D01*
X618103D01*
Y1070224D01*
X615564Y1067685D01*
X260227Y679828D02*
X257688Y677289D01*
Y672210D01*
X260227Y669671D01*
X270384D01*
X272923Y672210D01*
Y677289D01*
X270384Y679828D01*
X272923Y695063D02*
Y684906D01*
X262766Y695063D01*
X260227D01*
X257688Y692524D01*
Y687445D01*
X260227Y684906D01*
X461394Y737239D02*
X463933Y734700D01*
X469012D01*
X471551Y737239D01*
Y747396D01*
X469012Y749935D01*
X463933D01*
X461394Y747396D01*
X456316Y749935D02*
X451238D01*
X453777D01*
Y734700D01*
X456316Y737239D01*
X642239Y648589D02*
Y633354D01*
X634622D01*
X632082Y635893D01*
Y640972D01*
X634622Y643511D01*
X642239D01*
X637161D02*
X632082Y648589D01*
X627004D02*
X621926D01*
X624465D01*
Y633354D01*
X627004Y635893D01*
X608711Y876168D02*
Y863472D01*
X611250Y860933D01*
X616329D01*
X618868Y863472D01*
Y876168D01*
X634103Y860933D02*
X623946D01*
X634103Y871090D01*
Y873629D01*
X631564Y876168D01*
X626485D01*
X623946Y873629D01*
X876465Y1229745D02*
Y1244980D01*
X884082D01*
X886622Y1242441D01*
Y1237363D01*
X884082Y1234823D01*
X876465D01*
X901857Y1229745D02*
X891700D01*
X901857Y1239902D01*
Y1242441D01*
X899318Y1244980D01*
X894239D01*
X891700Y1242441D01*
X429895Y1233043D02*
Y1248278D01*
X437513D01*
X440052Y1245739D01*
Y1240660D01*
X437513Y1238121D01*
X429895D01*
X445130Y1245739D02*
X447669Y1248278D01*
X452748D01*
X455287Y1245739D01*
Y1243200D01*
X452748Y1240660D01*
X450208D01*
X452748D01*
X455287Y1238121D01*
Y1235582D01*
X452748Y1233043D01*
X447669D01*
X445130Y1235582D01*
X697357Y1030605D02*
X682122D01*
Y1038223D01*
X684661Y1040762D01*
X689740D01*
X692279Y1038223D01*
Y1030605D01*
Y1035683D02*
X697357Y1040762D01*
X684661Y1045840D02*
X682122Y1048379D01*
Y1053458D01*
X684661Y1055997D01*
X687200D01*
X689740Y1053458D01*
Y1050918D01*
Y1053458D01*
X692279Y1055997D01*
X694818D01*
X697357Y1053458D01*
Y1048379D01*
X694818Y1045840D01*
X824862Y1101978D02*
Y1112135D01*
X822322Y1114674D01*
X817244D01*
X814705Y1112135D01*
Y1101978D01*
X817244Y1099439D01*
X822322D01*
X819783Y1104517D02*
X824862Y1099439D01*
X822322D02*
X824862Y1101978D01*
X829940Y1099439D02*
X835018D01*
X832479D01*
Y1114674D01*
X829940Y1112135D01*
X830071Y1143558D02*
Y1158793D01*
X822453D01*
X819914Y1156254D01*
Y1146097D01*
X822453Y1143558D01*
X830071D01*
X814836Y1158793D02*
X809758D01*
X812297D01*
Y1143558D01*
X814836Y1146097D01*
X570488Y1112139D02*
X585723D01*
X580645D01*
X570488Y1122296D01*
X578106Y1114678D01*
X585723Y1122296D01*
Y1127374D02*
Y1132452D01*
Y1129913D01*
X570488D01*
X573027Y1127374D01*
X686194Y1024632D02*
X696351Y1014475D01*
X686194D02*
X696351Y1024632D01*
X686194Y1019554D02*
X696351D01*
X691272Y1014475D02*
Y1024632D01*
D31*
X752094Y648219D02*
Y637507D01*
X752808Y635364D01*
X754236Y633936D01*
X756379Y633222D01*
X757807D01*
X759949Y633936D01*
X761378Y635364D01*
X762092Y637507D01*
Y648219D01*
X776232Y646076D02*
X774803Y647505D01*
X772661Y648219D01*
X769805D01*
X767662Y647505D01*
X766234Y646076D01*
Y644648D01*
X766948Y643220D01*
X767662Y642506D01*
X769090Y641792D01*
X773375Y640363D01*
X774803Y639649D01*
X775518Y638935D01*
X776232Y637507D01*
Y635364D01*
X774803Y633936D01*
X772661Y633222D01*
X769805D01*
X767662Y633936D01*
X766234Y635364D01*
X779588Y648219D02*
Y633222D01*
Y648219D02*
X786015D01*
X788158Y647505D01*
X788872Y646790D01*
X789586Y645362D01*
Y643934D01*
X788872Y642506D01*
X788158Y641792D01*
X786015Y641077D01*
X779588D02*
X786015D01*
X788158Y640363D01*
X788872Y639649D01*
X789586Y638221D01*
Y636078D01*
X788872Y634650D01*
X788158Y633936D01*
X786015Y633222D01*
X779588D01*
X783336Y745740D02*
X768339Y740027D01*
X783336Y734314D01*
X778337Y736456D02*
Y743598D01*
X768339Y749239D02*
X783336D01*
X768339D02*
Y755667D01*
X769053Y757809D01*
X769768Y758523D01*
X771196Y759237D01*
X772624D01*
X774052Y758523D01*
X774766Y757809D01*
X775480Y755667D01*
Y749239D01*
Y754238D02*
X783336Y759237D01*
X768339Y762594D02*
X783336D01*
X768339D02*
Y767593D01*
X769053Y769735D01*
X770482Y771163D01*
X771910Y771877D01*
X774052Y772591D01*
X777623D01*
X779765Y771877D01*
X781194Y771163D01*
X782622Y769735D01*
X783336Y767593D01*
Y762594D01*
X768339Y775948D02*
X779051D01*
X781194Y776662D01*
X782622Y778090D01*
X783336Y780233D01*
Y781661D01*
X782622Y783803D01*
X781194Y785232D01*
X779051Y785946D01*
X768339D01*
Y790088D02*
X783336D01*
X768339Y793230D02*
X783336D01*
X768339D02*
X783336Y803228D01*
X768339D02*
X783336D01*
X768339Y811655D02*
X769053Y810226D01*
X770482Y808798D01*
X771910Y808084D01*
X774052Y807370D01*
X777623D01*
X779765Y808084D01*
X781194Y808798D01*
X782622Y810226D01*
X783336Y811655D01*
Y814511D01*
X782622Y815939D01*
X781194Y817368D01*
X779765Y818082D01*
X777623Y818796D01*
X774052D01*
X771910Y818082D01*
X770482Y817368D01*
X769053Y815939D01*
X768339Y814511D01*
Y811655D01*
Y834078D02*
X783336D01*
X768339D02*
X783336Y844076D01*
X768339D02*
X783336D01*
Y859644D02*
X768339Y853931D01*
X783336Y848218D01*
X778337Y850360D02*
Y857502D01*
X768339Y863143D02*
X783336D01*
X768339D02*
X783336Y873141D01*
X768339D02*
X783336D01*
X768339Y881568D02*
X769053Y880140D01*
X770482Y878712D01*
X771910Y877998D01*
X774052Y877283D01*
X777623D01*
X779765Y877998D01*
X781194Y878712D01*
X782622Y880140D01*
X783336Y881568D01*
Y884425D01*
X782622Y885853D01*
X781194Y887281D01*
X779765Y887995D01*
X777623Y888709D01*
X774052D01*
X771910Y887995D01*
X770482Y887281D01*
X769053Y885853D01*
X768339Y884425D01*
Y881568D01*
X583427Y788924D02*
X598424D01*
X583427Y798922D02*
X598424D01*
X590569Y788924D02*
Y798922D01*
X585570Y813062D02*
X584141Y811633D01*
X583427Y809491D01*
Y806635D01*
X584141Y804492D01*
X585570Y803064D01*
X586998D01*
X588426Y803778D01*
X589140Y804492D01*
X589854Y805920D01*
X591283Y810205D01*
X591997Y811633D01*
X592711Y812347D01*
X594139Y813062D01*
X596282D01*
X597710Y811633D01*
X598424Y809491D01*
Y806635D01*
X597710Y804492D01*
X596282Y803064D01*
X583427Y817846D02*
Y825702D01*
X589140Y821417D01*
Y823559D01*
X589854Y824988D01*
X590569Y825702D01*
X592711Y826416D01*
X594139D01*
X596282Y825702D01*
X597710Y824274D01*
X598424Y822131D01*
Y819989D01*
X597710Y817846D01*
X596996Y817132D01*
X595568Y816418D01*
X583427Y833343D02*
X584141Y831201D01*
X585570Y830487D01*
X586998D01*
X588426Y831201D01*
X589140Y832629D01*
X589854Y835486D01*
X590569Y837628D01*
X591997Y839056D01*
X593425Y839770D01*
X595568D01*
X596996Y839056D01*
X597710Y838342D01*
X598424Y836200D01*
Y833343D01*
X597710Y831201D01*
X596996Y830487D01*
X595568Y829772D01*
X593425D01*
X591997Y830487D01*
X590569Y831915D01*
X589854Y834057D01*
X589140Y836914D01*
X588426Y838342D01*
X586998Y839056D01*
X585570D01*
X584141Y838342D01*
X583427Y836200D01*
Y833343D01*
Y843127D02*
X598424D01*
X583427D02*
Y849554D01*
X584141Y851696D01*
X584855Y852410D01*
X586284Y853124D01*
X587712D01*
X589140Y852410D01*
X589854Y851696D01*
X590569Y849554D01*
Y843127D02*
Y849554D01*
X591283Y851696D01*
X591997Y852410D01*
X593425Y853124D01*
X595568D01*
X596996Y852410D01*
X597710Y851696D01*
X598424Y849554D01*
Y843127D01*
X635497Y938243D02*
X636211Y936100D01*
X638354Y934672D01*
X641924Y933958D01*
X644067D01*
X647637Y934672D01*
X649780Y936100D01*
X650494Y938243D01*
Y939671D01*
X649780Y941814D01*
X647637Y943242D01*
X644067Y943956D01*
X641924D01*
X638354Y943242D01*
X636211Y941814D01*
X635497Y939671D01*
Y938243D01*
X649066Y948026D02*
X649780Y947312D01*
X650494Y948026D01*
X649780Y948740D01*
X649066Y948026D01*
X638354Y952026D02*
X637640Y953454D01*
X635497Y955596D01*
X650494D01*
Y974449D02*
X635497Y968736D01*
X650494Y963023D01*
X645495Y965166D02*
Y972307D01*
X639068Y989732D02*
X636926Y993302D01*
X639068Y996159D01*
X637640Y999016D01*
X639068Y1001443D02*
X638354D01*
X636926Y1002158D01*
X636211Y1002872D01*
X635497Y1004300D01*
Y1007157D01*
X636211Y1008585D01*
X636926Y1009299D01*
X638354Y1010013D01*
X639782D01*
X641210Y1009299D01*
X643353Y1007871D01*
X650494Y1000729D01*
Y1010727D01*
X635497Y1015512D02*
Y1023367D01*
X641210Y1019083D01*
Y1021225D01*
X641924Y1022653D01*
X642638Y1023367D01*
X644781Y1024081D01*
X646209D01*
X648352Y1023367D01*
X649780Y1021939D01*
X650494Y1019797D01*
Y1017654D01*
X649780Y1015512D01*
X649066Y1014798D01*
X647637Y1014084D01*
X635497Y1031723D02*
X636211Y1029580D01*
X638354Y1028152D01*
X641924Y1027438D01*
X644067D01*
X647637Y1028152D01*
X649780Y1029580D01*
X650494Y1031723D01*
Y1033151D01*
X649780Y1035293D01*
X647637Y1036722D01*
X644067Y1037436D01*
X641924D01*
X638354Y1036722D01*
X636211Y1035293D01*
X635497Y1033151D01*
Y1031723D01*
Y1040792D02*
X650494Y1046505D01*
X635497Y1052218D02*
X650494Y1046505D01*
X933581Y1160913D02*
X935486Y1159008D01*
X938342Y1158056D01*
X942151D01*
X945008Y1159008D01*
X946912Y1160913D01*
Y1162817D01*
X945960Y1164722D01*
X945008Y1165674D01*
X943103Y1166626D01*
X937390Y1168530D01*
X935486Y1169482D01*
X934534Y1170435D01*
X933581Y1172339D01*
Y1175195D01*
X935486Y1177100D01*
X938342Y1178052D01*
X942151D01*
X945008Y1177100D01*
X946912Y1175195D01*
X929106Y1158056D02*
X924345Y1178052D01*
X919585Y1158056D02*
X924345Y1178052D01*
X919585Y1158056D02*
X914824Y1178052D01*
X910063Y1158056D02*
X914824Y1178052D01*
X906064Y1158056D02*
Y1178052D01*
X895209Y1158056D02*
Y1178052D01*
X901874Y1158056D02*
X888543D01*
X871880Y1162817D02*
X872833Y1160913D01*
X874737Y1159008D01*
X876641Y1158056D01*
X880450D01*
X882354Y1159008D01*
X884259Y1160913D01*
X885211Y1162817D01*
X886163Y1165674D01*
Y1170435D01*
X885211Y1173291D01*
X884259Y1175195D01*
X882354Y1177100D01*
X880450Y1178052D01*
X876641D01*
X874737Y1177100D01*
X872833Y1175195D01*
X871880Y1173291D01*
X866263Y1158056D02*
Y1178052D01*
X852932Y1158056D02*
Y1178052D01*
X866263Y1167578D02*
X852932D01*
X505843Y1166184D02*
X507747Y1167137D01*
X509652Y1169041D01*
X510604Y1170945D01*
X511556Y1173802D01*
Y1178563D01*
X510604Y1181419D01*
X509652Y1183324D01*
X507747Y1185228D01*
X505843Y1186180D01*
X502034D01*
X500130Y1185228D01*
X498226Y1183324D01*
X497273Y1181419D01*
X496321Y1178563D01*
Y1173802D01*
X497273Y1170945D01*
X498226Y1169041D01*
X500130Y1167137D01*
X502034Y1166184D01*
X505843D01*
X491656D02*
Y1180467D01*
X490703Y1183324D01*
X488799Y1185228D01*
X485942Y1186180D01*
X484038D01*
X481181Y1185228D01*
X479277Y1183324D01*
X478325Y1180467D01*
Y1166184D01*
X466137D02*
Y1186180D01*
X472802Y1166184D02*
X459472D01*
X457091Y1176658D02*
X448522D01*
X445665Y1175706D01*
X444713Y1174754D01*
X443761Y1172850D01*
Y1169993D01*
X444713Y1168089D01*
X445665Y1167137D01*
X448522Y1166184D01*
X457091D01*
Y1186180D01*
X439286Y1166184D02*
Y1180467D01*
X438334Y1183324D01*
X436429Y1185228D01*
X433573Y1186180D01*
X431668D01*
X428812Y1185228D01*
X426907Y1183324D01*
X425955Y1180467D01*
Y1166184D01*
X413767D02*
Y1186180D01*
X420433Y1166184D02*
X407102D01*
X328422Y1164152D02*
Y1184148D01*
Y1164152D02*
X315091Y1184148D01*
Y1164152D02*
Y1184148D01*
X384048Y1164914D02*
Y1184910D01*
X372622D01*
X370432Y1168723D02*
X368527Y1167771D01*
X365671Y1164914D01*
Y1184910D01*
D32*
X822070Y1193982D02*
D03*
M02*
