G04 Layer_Color=255*
%FSLAX44Y44*%
%MOMM*%
G71*
G01*
G75*
%ADD12C,1.5240*%
%ADD13C,1.4000*%
%ADD14C,2.5240*%
%ADD15C,1.2000*%
%ADD16C,1.7000*%
%ADD17R,1.7000X1.7000*%
%ADD18C,1.2700*%
%ADD19C,1.5000*%
%ADD20R,1.5000X1.5000*%
%ADD21C,1.3500*%
%ADD22R,1.3500X1.3500*%
%ADD23R,1.3500X1.3500*%
%ADD24R,1.0500X1.0500*%
%ADD25C,1.0500*%
%ADD26R,2.5000X1.4000*%
%ADD27O,2.5000X1.4000*%
D12*
X769366Y1080262D02*
D03*
X468122Y835914D02*
D03*
X928116Y610362D02*
D03*
X627380Y793750D02*
D03*
Y819150D02*
D03*
Y844550D02*
D03*
X642366Y1125982D02*
D03*
X764666D02*
D03*
X642366Y1245982D02*
D03*
X764666D02*
D03*
X779666Y1185982D02*
D03*
D13*
X889000Y966724D02*
D03*
Y890524D02*
D03*
X496570Y692150D02*
D03*
X572770D02*
D03*
X636270Y664210D02*
D03*
Y740410D02*
D03*
X712978Y1036574D02*
D03*
X789178D02*
D03*
D14*
X322110Y1224280D02*
D03*
X372110Y1223010D02*
D03*
X925322Y1219712D02*
D03*
X875322Y1220982D02*
D03*
X428752Y1224280D02*
D03*
X478752Y1223010D02*
D03*
X472910Y907190D02*
D03*
X372910D02*
D03*
X522910Y1107190D02*
D03*
X327910D02*
D03*
D15*
X541528Y782828D02*
D03*
Y812828D02*
D03*
D16*
X355600Y627380D02*
D03*
X381000D02*
D03*
D17*
X406400D02*
D03*
D18*
X375920Y773938D02*
D03*
X320040D02*
D03*
Y829818D02*
D03*
X375920D02*
D03*
D19*
X612902Y1038944D02*
D03*
X822070Y1245982D02*
D03*
D20*
X612902Y922444D02*
D03*
X822070Y1174982D02*
D03*
D21*
X301498Y725024D02*
D03*
X416198Y778510D02*
D03*
D22*
X301498Y675024D02*
D03*
D23*
X466198Y778510D02*
D03*
D24*
X831342Y1067054D02*
D03*
D25*
X844042D02*
D03*
X856742D02*
D03*
D26*
X697230Y993140D02*
D03*
D27*
Y967740D02*
D03*
Y942340D02*
D03*
Y916940D02*
D03*
Y891540D02*
D03*
Y866140D02*
D03*
Y840740D02*
D03*
Y815340D02*
D03*
Y789940D02*
D03*
Y764540D02*
D03*
Y739140D02*
D03*
Y713740D02*
D03*
Y688340D02*
D03*
Y662940D02*
D03*
Y637540D02*
D03*
X847230Y993140D02*
D03*
Y967740D02*
D03*
Y942340D02*
D03*
Y916940D02*
D03*
Y891540D02*
D03*
Y866140D02*
D03*
Y840740D02*
D03*
Y815340D02*
D03*
Y789940D02*
D03*
Y764540D02*
D03*
Y739140D02*
D03*
Y713740D02*
D03*
Y688340D02*
D03*
Y662940D02*
D03*
Y637540D02*
D03*
M02*
